<?xml version="1.0" encoding="UTF-8"?>
<svg width="38px" height="38px" viewBox="0 0 38 38" version="1.1" xmlns="http://www.w3.org/2000/svg" xmlns:xlink="http://www.w3.org/1999/xlink">
    <title>element/mute</title>
    <g id="Page-1" stroke="none" stroke-width="1" fill="none" fill-rule="evenodd">
        <g id="Landing" transform="translate(-298, -9394)">
            <g id="Group" transform="translate(19, 9379)">
                <g id="element/mute" transform="translate(279, 15)">
                    <circle id="Oval" stroke="#002657" stroke-width="1.5" fill="#FFFFFF" cx="19" cy="19" r="18.25"></circle>
                    <g id="noun-mute-6781933" stroke-width="1" transform="translate(9.087, 10.7391)" fill="#002657">
                        <path d="M10.6200885,0.182473803 C10.0783725,-0.0989218585 9.44449643,-0.052322737 8.94841949,0.304704574 L4.20812878,3.75611616 C4.20812878,3.75611616 4.12544929,3.80272278 4.07032963,3.80272278 L1.60795071,3.80272278 C0.726036155,3.80272278 0,4.54403151 0,5.44449763 L0,11.0724108 C0,11.972877 0.726036155,12.7141857 1.60795071,12.7141857 L4.07032963,12.7141857 C4.11597606,12.7141857 4.16248235,12.7326524 4.20812878,12.7607923 L8.94841949,16.2122039 C9.22401779,16.4188609 9.55473575,16.5217391 9.88545371,16.5217391 C10.1334922,16.5217391 10.3910112,16.46546 10.6200885,16.3344347 C11.1618045,16.053039 11.4925225,15.4902477 11.4925225,14.8711772 L11.4933837,1.63582611 C11.4933837,1.01675566 11.1626658,0.463644347 10.6209498,0.172568675 L10.6200885,0.182473803 Z" id="Path" fill-rule="nonzero"></path>
                        <path d="M13.6459549,11.4933837 C13.463552,11.4933837 13.2820539,11.4260213 13.1382877,11.2823061 C12.8606464,11.0047781 12.8606464,10.544914 13.1382877,10.2664663 L18.888936,4.5181649 C19.1665773,4.24063691 19.6266292,4.24063691 19.9051906,4.5181649 C20.1828319,4.79569289 20.1828319,5.255557 19.9051906,5.53400472 L14.1545423,11.2823061 C14.010776,11.4260137 13.8283655,11.4933837 13.646875,11.4933837 L13.6459549,11.4933837 Z" id="Path" fill-rule="nonzero"></path>
                        <path d="M19.3966032,11.4933837 C19.2142003,11.4933837 19.0327022,11.4260213 18.888936,11.2823061 L13.1382877,5.53400472 C12.8606464,5.25647673 12.8606464,4.79661262 13.1382877,4.5181649 C13.415929,4.24063691 13.8759809,4.24063691 14.1545423,4.5181649 L19.9051906,10.2664663 C20.1828319,10.5439943 20.1828319,11.0038584 19.9051906,11.2823061 C19.7614244,11.4260137 19.5790138,11.4933837 19.3975233,11.4933837 L19.3966032,11.4933837 Z" id="Path" fill-rule="nonzero"></path>
                    </g>
                </g>
            </g>
        </g>
    </g>
</svg>