<?xml version="1.0" encoding="UTF-8"?>
<svg width="113px" height="119px" viewBox="0 0 113 119" version="1.1" xmlns="http://www.w3.org/2000/svg" xmlns:xlink="http://www.w3.org/1999/xlink">
    <title>clock</title>
    <g id="Page-1" stroke="none" stroke-width="1" fill="none" fill-rule="evenodd">
        <g id="Landing" transform="translate(-659, -2228)">
            <g id="clock" transform="translate(660, 2228)">
                <polygon id="Stroke-1" stroke="#222430" stroke-width="1.5" stroke-linejoin="round" points="99.6795708 62.764931 102.801708 62.764931 105.924368 62.764931 102.801708 62.764931"></polygon>
                <path d="M98.8682236,54.3621823 C98.8682236,54.3621823 100.24054,54.0964212 101.93329,53.7680053 C103.62604,53.4401115 104.997832,53.1738283 104.997832,53.1738283 C104.997832,53.1738283 103.62604,53.4401115 101.93329,53.7680053 C100.24054,54.0964212 98.8682236,54.3621823 98.8682236,54.3621823 Z" id="Stroke-4" stroke="#222430" stroke-width="1.5" stroke-linejoin="round"></path>
                <path d="M96.4639741,46.2681655 C96.4639741,46.2681655 97.7598467,45.7460416 99.358875,45.1017407 C100.957903,44.4574398 102.253776,43.9353159 102.253776,43.9353159 C102.253776,43.9353159 100.957903,44.4574398 99.358875,45.1017407 C97.7598467,45.7460416 96.4639741,46.2681655 96.4639741,46.2681655 Z" id="Stroke-6" stroke="#222430" stroke-width="1.5" stroke-linejoin="round"></path>
                <path d="M92.5551509,38.7803345 C92.5551509,38.7803345 93.7274575,38.0211664 95.1735991,37.0844761 C96.6197406,36.1477858 97.7920472,35.3886177 97.7920472,35.3886177 C97.7920472,35.3886177 96.6197406,36.1477858 95.1735991,37.0844761 C93.7274575,38.0211664 92.5551509,38.7803345 92.5551509,38.7803345 Z" id="Stroke-8" stroke="#222430" stroke-width="1.5" stroke-linejoin="round"></path>
                <path d="M87.2853736,32.1738487 C87.2853736,32.1738487 88.2911802,31.2053088 89.5315528,30.0112115 C90.7719255,28.816592 91.7772085,27.8480522 91.7772085,27.8480522 C91.7772085,27.8480522 90.7719255,28.816592 89.5315528,30.0112115 C88.2911802,31.2053088 87.2853736,32.1738487 87.2853736,32.1738487 Z" id="Stroke-10" stroke="#222430" stroke-width="1.5" stroke-linejoin="round"></path>
                <path d="M80.8483684,26.6914434 C80.8483684,26.6914434 81.6499769,25.5495584 82.6390288,24.1408681 C83.6280807,22.7321779 84.4302127,21.5902929 84.4302127,21.5902929 C84.4302127,21.5902929 83.6280807,22.7321779 82.6390288,24.1408681 C81.6499769,25.5495584 80.8483684,26.6914434 80.8483684,26.6914434 Z" id="Stroke-12" stroke="#222430" stroke-width="1.5" stroke-linejoin="round"></path>
                <path d="M73.4805863,22.5346062 C73.4805863,22.5346062 74.0491995,21.261146 74.7502797,19.6900752 C75.4518835,18.1195265 76.0204967,16.8460664 76.0204967,16.8460664 C76.0204967,16.8460664 75.4518835,18.1195265 74.7502797,19.6900752 C74.0491995,21.261146 73.4805863,22.5346062 73.4805863,22.5346062 Z" id="Stroke-14" stroke="#222430" stroke-width="1.5" stroke-linejoin="round"></path>
                <path d="M65.4527731,19.8560062 C65.4527731,19.8560062 65.7674476,18.4979619 66.1549005,16.8224664 C66.5428769,15.1469708 66.8575514,13.7884044 66.8575514,13.7884044 C66.8575514,13.7884044 66.5428769,15.1469708 66.1549005,16.8224664 C65.7674476,18.4979619 65.4527731,19.8560062 65.4527731,19.8560062 Z" id="Stroke-16" stroke="#222430" stroke-width="1.5" stroke-linejoin="round"></path>
                <path d="M57.0599165,18.7541681 C57.0599165,18.7541681 57.1086099,17.3611416 57.1688222,15.6423097 C57.2290344,13.924 57.2777278,12.5309735 57.2777278,12.5309735 C57.2777278,12.5309735 57.2290344,13.924 57.1688222,15.6423097 C57.1086099,17.3611416 57.0599165,18.7541681 57.0599165,18.7541681 Z" id="Stroke-18" stroke="#222430" stroke-width="1.5" stroke-linejoin="round"></path>
                <path d="M48.6104604,19.2695044 C48.6104604,19.2695044 48.3916019,17.8926637 48.1219557,16.1941947 C47.8523094,14.4957257 47.6334509,13.118885 47.6334509,13.118885 C47.6334509,13.118885 47.8523094,14.4957257 48.1219557,16.1941947 C48.3916019,17.8926637 48.6104604,19.2695044 48.6104604,19.2695044 Z" id="Stroke-20" stroke="#222430" stroke-width="1.5" stroke-linejoin="round"></path>
                <path d="M40.4148382,21.3831142 C40.4148382,21.3831142 39.9368052,20.0731053 39.346725,18.4571319 C38.7571684,16.8416805 38.2791354,15.5316717 38.2791354,15.5316717 C38.2791354,15.5316717 38.7571684,16.8416805 39.346725,18.4571319 C39.9368052,20.0731053 40.4148382,21.3831142 40.4148382,21.3831142 Z" id="Stroke-22" stroke="#222430" stroke-width="1.5" stroke-linejoin="round"></path>
                <path d="M32.774216,25.0173575 C32.774216,25.0173575 32.0542868,23.8222159 31.1662868,22.3482602 C30.2777632,20.8743044 29.557834,19.679685 29.557834,19.679685 C29.557834,19.679685 30.2777632,20.8743044 31.1662868,22.3482602 C32.0542868,23.8222159 32.774216,25.0173575 32.774216,25.0173575 Z" id="Stroke-24" stroke="#222430" stroke-width="1.5" stroke-linejoin="round"></path>
                <path d="M25.9693401,30.038623 C25.9693401,30.038623 25.0342175,29.0027292 23.8802363,27.7245699 C22.7262552,26.4469327 21.7911325,25.4110389 21.7911325,25.4110389 C21.7911325,25.4110389 22.7262552,26.4469327 23.8802363,27.7245699 C25.0342175,29.0027292 25.9693401,30.038623 25.9693401,30.038623 Z" id="Stroke-26" stroke="#222430" stroke-width="1.5" stroke-linejoin="round"></path>
                <path d="M20.2503269,36.2624442 C20.2503269,36.2624442 19.1340439,35.4233912 17.7570156,34.3885416 C16.3794637,33.353692 15.2631807,32.5146389 15.2631807,32.5146389 C15.2631807,32.5146389 16.3794637,33.353692 17.7570156,34.3885416 C19.1340439,35.4233912 20.2503269,36.2624442 20.2503269,36.2624442 Z" id="Stroke-28" stroke="#222430" stroke-width="1.5" stroke-linejoin="round"></path>
                <path d="M15.8272387,43.460131 C15.8272387,43.460131 14.5706349,42.849246 13.0208236,42.0952991 C11.4710123,41.3413522 10.2144085,40.7304673 10.2144085,40.7304673 C10.2144085,40.7304673 11.4710123,41.3413522 13.0208236,42.0952991 C14.5706349,42.849246 15.8272387,43.460131 15.8272387,43.460131 Z" id="Stroke-30" stroke="#222430" stroke-width="1.5" stroke-linejoin="round"></path>
                <path d="M12.8626486,51.3671752 C12.8626486,51.3671752 11.5123231,51.0063876 9.84679953,50.5615381 C8.18127594,50.1161664 6.83095047,49.7553788 6.83095047,49.7553788 C6.83095047,49.7553788 8.18127594,50.1161664 9.84679953,50.5615381 C11.5123231,51.0063876 12.8626486,51.3671752 12.8626486,51.3671752 Z" id="Stroke-32" stroke="#222430" stroke-width="1.5" stroke-linejoin="round"></path>
                <path d="M11.4654623,59.6930673 C11.4654623,59.6930673 10.0711557,59.5959522 8.35065566,59.4758637 C6.63067925,59.3557752 5.23584906,59.2586602 5.23584906,59.2586602 C5.23584906,59.2586602 6.63067925,59.3557752 8.35065566,59.4758637 C10.0711557,59.5959522 11.4654623,59.6930673 11.4654623,59.6930673 Z" id="Stroke-34" stroke="#222430" stroke-width="1.5" stroke-linejoin="round"></path>
                <path d="M11.6870434,68.1317903 C11.6870434,68.1317903 10.2995434,68.3014805 8.58794434,68.5113743 C6.87634528,68.720746 5.48884528,68.8904363 5.48884528,68.8904363 C5.48884528,68.8904363 6.87634528,68.720746 8.58794434,68.5113743 C10.2995434,68.3014805 11.6870434,68.1317903 11.6870434,68.1317903 Z" id="Stroke-36" stroke="#222430" stroke-width="1.5" stroke-linejoin="round"></path>
                <path d="M13.5192764,76.3733071 C13.5192764,76.3733071 12.1898943,76.8040593 10.5500264,77.3355814 C8.90963491,77.8665814 7.58025283,78.2978558 7.58025283,78.2978558 C7.58025283,78.2978558 8.90963491,77.8665814 10.5500264,77.3355814 C12.1898943,76.8040593 13.5192764,76.3733071 13.5192764,76.3733071 Z" id="Stroke-38" stroke="#222430" stroke-width="1.5" stroke-linejoin="round"></path>
                <path d="M16.8947759,84.1148381 C16.8947759,84.1148381 15.6722052,84.7904664 14.1637571,85.6242982 C12.6558325,86.4581301 11.4332618,87.1337584 11.4332618,87.1337584 C11.4332618,87.1337584 12.6558325,86.4581301 14.1637571,85.6242982 C15.6722052,84.7904664 16.8947759,84.1148381 16.8947759,84.1148381 Z" id="Stroke-40" stroke="#222430" stroke-width="1.5" stroke-linejoin="round"></path>
                <path d="M21.6895571,91.0717735 C21.6895571,91.0717735 20.6188259,91.9677381 19.2978212,93.0730743 C17.9768165,94.1784106 16.9060854,95.0743752 16.9060854,95.0743752 C16.9060854,95.0743752 17.9768165,94.1784106 19.2978212,93.0730743 C20.6188259,91.9677381 21.6895571,91.0717735 21.6895571,91.0717735 Z" id="Stroke-42" stroke="#222430" stroke-width="1.5" stroke-linejoin="round"></path>
                <path d="M27.7274335,96.9886381 C27.7274335,96.9886381 26.8478108,98.0720451 25.7624193,99.4081602 C24.6775514,100.744797 23.7974052,101.828204 23.7974052,101.828204 C23.7974052,101.828204 24.6775514,100.744797 25.7624193,99.4081602 C26.8478108,98.0720451 27.7274335,96.9886381 27.7274335,96.9886381 Z" id="Stroke-44" stroke="#222430" stroke-width="1.5" stroke-linejoin="round"></path>
                <path d="M34.7864575,101.647863 C34.7864575,101.647863 34.1304057,102.878509 33.3204198,104.396845 L31.8549057,107.14635 C31.8549057,107.14635 32.5109575,105.915181 33.3204198,104.396845 C34.1304057,102.878509 34.7864575,101.647863 34.7864575,101.647863 Z" id="Stroke-46" stroke="#222430" stroke-width="1.5" stroke-linejoin="round"></path>
                <path d="M42.60735,104.878348 C42.60735,104.878348 42.1984302,106.21133 41.6947415,107.85602 C41.1905292,109.500188 40.7816094,110.833171 40.7816094,110.833171 C40.7816094,110.833171 41.1905292,109.500188 41.6947415,107.85602 C42.1984302,106.21133 42.60735,104.878348 42.60735,104.878348 Z" id="Stroke-48" stroke="#222430" stroke-width="1.5" stroke-linejoin="round"></path>
                <path d="M50.9026627,106.56131 C50.9026627,106.56131 50.7565825,107.947549 50.5764693,109.658027 C50.3958325,111.367982 50.2497524,112.754221 50.2497524,112.754221 C50.2497524,112.754221 50.3958325,111.367982 50.5764693,109.658027 C50.7565825,107.947549 50.9026627,106.56131 50.9026627,106.56131 Z" id="Stroke-50" stroke="#222430" stroke-width="1.5" stroke-linejoin="round"></path>
                <path d="M59.367617,106.634981 C59.367617,106.634981 59.4896123,108.023831 59.6398811,109.736919 C59.79015,111.449486 59.9116217,112.838335 59.9116217,112.838335 C59.9116217,112.838335 59.79015,111.449486 59.6398811,109.736919 C59.4896123,108.023831 59.367617,106.634981 59.367617,106.634981 Z" id="Stroke-52" stroke="#222430" stroke-width="1.5" stroke-linejoin="round"></path>
                <path d="M67.6910986,105.096648 C67.6910986,105.096648 68.0764571,106.436418 68.5518722,108.089462 C69.0267637,109.742506 69.4121222,111.082798 69.4121222,111.082798 C69.4121222,111.082798 69.0267637,109.742506 68.5518722,108.089462 C68.0764571,106.436418 67.6910986,105.096648 67.6910986,105.096648 Z" id="Stroke-54" stroke="#222430" stroke-width="1.5" stroke-linejoin="round"></path>
                <path d="M75.567334,102.00275 C75.567334,102.00275 76.2019189,103.244883 76.9846783,104.776795 C77.7674377,106.309228 78.4025462,107.551361 78.4025462,107.551361 C78.4025462,107.551361 77.7674377,106.309228 76.9846783,104.776795 C76.2019189,103.244883 75.567334,102.00275 75.567334,102.00275 Z" id="Stroke-56" stroke="#222430" stroke-width="1.5" stroke-linejoin="round"></path>
                <path d="M82.7068854,97.4670602 C82.7068854,97.4670602 83.567659,98.5656088 84.6289656,99.9205204 C85.6907958,101.275432 86.5515693,102.373981 86.5515693,102.373981 C86.5515693,102.373981 85.6907958,101.275432 84.6289656,99.9205204 C83.567659,98.5656088 82.7068854,97.4670602 82.7068854,97.4670602 Z" id="Stroke-58" stroke="#222430" stroke-width="1.5" stroke-linejoin="round"></path>
                <path d="M88.8473321,91.6562389 C88.8473321,91.6562389 89.9023557,92.571 91.2039877,93.6987876 C92.5050962,94.8270973 93.5601198,95.7418584 93.5601198,95.7418584 C93.5601198,95.7418584 92.5050962,94.8270973 91.2039877,93.6987876 C89.9023557,92.571 88.8473321,91.6562389 88.8473321,91.6562389 Z" id="Stroke-60" stroke="#222430" stroke-width="1.5" stroke-linejoin="round"></path>
                <path d="M93.763166,84.7837832 C93.763166,84.7837832 94.9736943,85.4808186 96.4669585,86.3407566 C97.9607462,87.2001726 99.1712745,87.897208 99.1712745,87.897208 C99.1712745,87.897208 97.9607462,87.2001726 96.4669585,86.3407566 C94.9736943,85.4808186 93.763166,84.7837832 93.763166,84.7837832 Z" id="Stroke-62" stroke="#222430" stroke-width="1.5" stroke-linejoin="round"></path>
                <path d="M97.2736458,77.102192 C97.2736458,77.102192 98.5951741,77.5559177 100.225617,78.1156345 C101.856061,78.6758735 103.178113,79.1295991 103.178113,79.1295991 C103.178113,79.1295991 101.856061,78.6758735 100.225617,78.1156345 C98.5951741,77.5559177 97.2736458,77.102192 97.2736458,77.102192 Z" id="Stroke-64" stroke="#222430" stroke-width="1.5" stroke-linejoin="round"></path>
                <path d="M99.2498123,68.8938301 C99.2498123,68.8938301 100.634171,69.0880602 102.341581,69.3271929 C104.049515,69.5663257 105.433874,69.7605558 105.433874,69.7605558 C105.433874,69.7605558 104.049515,69.5663257 102.341581,69.3271929 C100.634171,69.0880602 99.2498123,68.8938301 99.2498123,68.8938301 Z" id="Stroke-66" stroke="#222430" stroke-width="1.5" stroke-linejoin="round"></path>
                <ellipse id="Oval" stroke="#2E302E" stroke-width="1.5" cx="55.6308962" cy="62.7808972" rx="55.111825" ry="54.9580409"></ellipse>
                <line x1="55.6083279" y1="63.8026396" x2="73.6449252" y2="96.7774641" id="Line-5" stroke="#222430" stroke-width="1.5" stroke-linejoin="round"></line>
                <path d="M102.62395,34.1006468 C104.498077,32.6374122 105.732555,30.3651808 105.732555,27.8075984 C105.732555,23.3926911 102.143551,19.8137016 97.7162899,19.8137016 C95.6188634,19.8137016 93.7095766,20.6169754 92.2808598,21.931853 C92.2695922,21.9422747 95.6950928,24.6511037 98.0886048,27.4753399 C100.818321,30.6962817 102.512308,34.187812 102.62395,34.1006468 Z" id="Oval" fill="#2E302E" fill-rule="evenodd"></path>
                <ellipse id="Oval-Copy-7" fill="#2E302E" fill-rule="evenodd" cx="55.5" cy="62.6548673" rx="5.75943396" ry="5.74336283"></ellipse>
                <rect id="Rectangle" fill="#2E302E" fill-rule="evenodd" x="52.3584906" y="1.56637168" width="6.01219909" height="5.99542264"></rect>
                <rect id="Rectangle-Copy-2" fill="#2E302E" fill-rule="evenodd" transform="translate(55.5, 2.0885) scale(1, -1) translate(-55.5, -2.0885)" x="47.1226415" y="0.522123894" width="16.754717" height="3.13274336"></rect>
            </g>
        </g>
    </g>
</svg>