<?xml version="1.0" encoding="UTF-8"?>
<svg width="98px" height="19px" viewBox="0 0 98 19" version="1.1" xmlns="http://www.w3.org/2000/svg" xmlns:xlink="http://www.w3.org/1999/xlink">
    <title>Combined Shape</title>
    <g id="Page-1" stroke="none" stroke-width="1" fill="none" fill-rule="evenodd">
        <g id="Landing" transform="translate(-156, -8844)" fill="#292A35">
            <g id="Group-48" transform="translate(0, 6911)">
                <g id="Group-14" transform="translate(128, 1912.5)">
                    <path d="M37.5007308,21 L40.631587,26.655 L47,27.87 L42.5668128,32.595 L43.3721825,39 L37.5007308,36.255 L31.6292792,39 L32.4346488,32.595 L28,27.87 L34.368413,26.655 L37.5007308,21 Z M56.5007308,21 L59.631587,26.655 L66,27.87 L61.5668128,32.595 L62.3721825,39 L56.5007308,36.255 L50.6292792,39 L51.4346488,32.595 L47,27.87 L53.368413,26.655 L56.5007308,21 Z M77.5007308,21 L80.631587,26.655 L87,27.87 L82.5668128,32.595 L83.3721825,39 L77.5007308,36.255 L71.6292792,39 L72.4346488,32.595 L68,27.87 L74.368413,26.655 L77.5007308,21 M97.5007308,21 L100.631587,26.655 L107,27.87 L102.566813,32.595 L103.372182,39 L97.5007308,36.255 L91.6292792,39 L92.4346488,32.595 L88,27.87 L94.368413,26.655 L97.5007308,21 Z M116.500731,21 L119.631587,26.655 L126,27.87 L121.566813,32.595 L122.372182,39 L116.500731,36.255 L110.629279,39 L111.434649,32.595 L107,27.87 L113.368413,26.655 L116.500731,21 Z" id="Combined-Shape"></path>
                </g>
            </g>
        </g>
    </g>
</svg>