<?xml version="1.0" encoding="UTF-8"?>
<svg width="116px" height="18px" viewBox="0 0 116 18" version="1.1" xmlns="http://www.w3.org/2000/svg" xmlns:xlink="http://www.w3.org/1999/xlink">
    <title>Combined Shape Copy</title>
    <g id="Page-1" stroke="none" stroke-width="1" fill="none" fill-rule="evenodd">
        <g id="Landing" transform="translate(-95, -641)" fill="#FFBA00">
            <g id="Group" transform="translate(90, 641)">
                <g id="Group-4" transform="translate(5, 0)">
                    <path d="M10.0007693,0 L13.2964074,5.655 L20,6.87 L15.3334872,11.595 L16.1812447,18 L10.0007693,15.255 L3.82029387,18 L4.66805139,11.595 L0,6.87 L6.70359258,5.655 L10.0007693,0 M34.0007693,0 L37.2964074,5.655 L44,6.87 L39.3334872,11.595 L40.1812447,18 L34.0007693,15.255 L27.8202939,18 L28.6680514,11.595 L24,6.87 L30.7035926,5.655 L34.0007693,0 M58.0007693,0 L61.2964074,5.655 L68,6.87 L63.3334872,11.595 L64.1812447,18 L58.0007693,15.255 L51.8202939,18 L52.6680514,11.595 L48,6.87 L54.7035926,5.655 L58.0007693,0 M82.0007693,0 L85.2964074,5.655 L92,6.87 L87.3334872,11.595 L88.1812447,18 L82.0007693,15.255 L75.8202939,18 L76.6680514,11.595 L72,6.87 L78.7035926,5.655 L82.0007693,0 M106.000769,0 L109.296407,5.655 L116,6.87 L111.333487,11.595 L112.181245,18 L106.000769,15.255 L99.8202939,18 L100.668051,11.595 L96,6.87 L102.703593,5.655 L106.000769,0" id="Combined-Shape-Copy"></path>
                </g>
            </g>
        </g>
    </g>
</svg>