<?xml version="1.0" encoding="UTF-8"?>
<svg width="98px" height="19px" viewBox="0 0 98 19" version="1.1" xmlns="http://www.w3.org/2000/svg" xmlns:xlink="http://www.w3.org/1999/xlink">
    <title>Combined Shape</title>
    <g id="Page-1" stroke="none" stroke-width="1" fill="none" fill-rule="evenodd">
        <g id="Landing" transform="translate(-962, -8844)" fill="#292A35">
            <g id="Group-48" transform="translate(0, 6911)">
                <g id="Group-14" transform="translate(128, 1912.5)">
                    <path d="M843.500731,21 L846.631587,26.655 L853,27.87 L848.566813,32.595 L849.372182,39 L843.500731,36.255 L837.629279,39 L838.434649,32.595 L834,27.87 L840.368413,26.655 L843.500731,21 Z M862.500731,21 L865.631587,26.655 L872,27.87 L867.566813,32.595 L868.372182,39 L862.500731,36.255 L856.629279,39 L857.434649,32.595 L853,27.87 L859.368413,26.655 L862.500731,21 Z M883.500731,21 L886.631587,26.655 L893,27.87 L888.566813,32.595 L889.372182,39 L883.500731,36.255 L877.629279,39 L878.434649,32.595 L874,27.87 L880.368413,26.655 L883.500731,21 M903.500731,21 L906.631587,26.655 L913,27.87 L908.566813,32.595 L909.372182,39 L903.500731,36.255 L897.629279,39 L898.434649,32.595 L894,27.87 L900.368413,26.655 L903.500731,21 Z M922.500731,21 L925.631587,26.655 L932,27.87 L927.566813,32.595 L928.372182,39 L922.500731,36.255 L916.629279,39 L917.434649,32.595 L913,27.87 L919.368413,26.655 L922.500731,21 Z" id="Combined-Shape"></path>
                </g>
            </g>
        </g>
    </g>
</svg>