<?xml version="1.0" encoding="UTF-8"?>
<svg width="98px" height="19px" viewBox="0 0 98 19" version="1.1" xmlns="http://www.w3.org/2000/svg" xmlns:xlink="http://www.w3.org/1999/xlink">
    <title>Combined Shape</title>
    <g id="Page-1" stroke="none" stroke-width="1" fill="none" fill-rule="evenodd">
        <g id="Landing" transform="translate(-559, -8844)" fill="#292A35">
            <g id="Group-48" transform="translate(0, 6911)">
                <g id="Group-14" transform="translate(128, 1912.5)">
                    <path d="M440.500731,21 L443.631587,26.655 L450,27.87 L445.566813,32.595 L446.372182,39 L440.500731,36.255 L434.629279,39 L435.434649,32.595 L431,27.87 L437.368413,26.655 L440.500731,21 Z M459.500731,21 L462.631587,26.655 L469,27.87 L464.566813,32.595 L465.372182,39 L459.500731,36.255 L453.629279,39 L454.434649,32.595 L450,27.87 L456.368413,26.655 L459.500731,21 Z M480.500731,21 L483.631587,26.655 L490,27.87 L485.566813,32.595 L486.372182,39 L480.500731,36.255 L474.629279,39 L475.434649,32.595 L471,27.87 L477.368413,26.655 L480.500731,21 M500.500731,21 L503.631587,26.655 L510,27.87 L505.566813,32.595 L506.372182,39 L500.500731,36.255 L494.629279,39 L495.434649,32.595 L491,27.87 L497.368413,26.655 L500.500731,21 Z M519.500731,21 L522.631587,26.655 L529,27.87 L524.566813,32.595 L525.372182,39 L519.500731,36.255 L513.629279,39 L514.434649,32.595 L510,27.87 L516.368413,26.655 L519.500731,21 Z" id="Combined-Shape"></path>
                </g>
            </g>
        </g>
    </g>
</svg>