<?xml version="1.0" encoding="UTF-8"?>
<svg width="88px" height="15px" viewBox="0 0 88 15" version="1.1" xmlns="http://www.w3.org/2000/svg" xmlns:xlink="http://www.w3.org/1999/xlink">
    <title>stars</title>
    <g id="stars" stroke="none" fill="none" fill-rule="evenodd" stroke-width="1">
        <g id="Group-3" fill="#00A9E0">
            <path d="M13.9492098,4.34251919 L11.3177178,4.0462031 C10.7898138,3.98897914 10.3316955,3.66384992 10.1126362,3.19054879 L8.99609177,0.836667061 C8.83064836,0.500703437 8.54143444,0.238430406 8.18649138,0.102174947 C7.8316618,-0.0340583158 7.43717345,-0.0340583158 7.08234386,0.102174947 C6.7274008,0.23840821 6.43818689,0.500675692 6.27274348,0.836667061 L5.16981579,3.19715208 C4.95062597,3.67045322 4.49263822,3.99567955 3.96473417,4.05291738 L1.33324216,4.34923347 C0.948824524,4.39377799 0.596548076,4.58105642 0.349120537,4.87217032 C0.101562504,5.16338134 -0.0222193491,5.53632898 0.00328367292,5.914132 C0.028659889,6.29204599 0.201307972,6.6459051 0.485656738,6.90287885 L2.43963077,8.65416796 C2.81970806,9.01105128 2.98228628,9.53593028 2.86858649,10.0391405 L2.34088102,12.5794405 C2.26464145,12.9521662 2.33811067,13.3391806 2.54599737,13.6603006 C2.75377183,13.9814207 3.08011406,14.2118425 3.45721269,14.3038448 C3.83419785,14.3958581 4.23291306,14.3423187 4.57066498,14.1542828 L6.87867429,12.8790971 C7.3411045,12.6226727 7.9072489,12.6226727 8.36976421,12.8790971 L10.6981703,14.1542828 C11.0369151,14.3423187 11.4367366,14.3952089 11.8144026,14.3020025 C12.1920403,14.2086879 12.5182747,13.9765542 12.725079,13.6536862 C12.9319683,13.3309292 13.0033314,12.9424999 12.9245415,12.569469 L12.400297,10.0391571 C12.2942481,9.53064764 12.46867,9.00490855 12.8598336,8.65418461 L14.8138077,6.9028955 C15.1016883,6.64495345 15.2763514,6.28806736 15.301287,5.90699044 C15.3261092,5.52594127 15.1992267,5.15019139 14.9472517,4.85864743 C14.6951519,4.5669925 14.3375621,4.38210014 13.9492581,4.34253584 L13.9492098,4.34251919 Z" id="Path" fill-rule="nonzero"></path>
            <path d="M32.1231229,4.34251919 L29.4916309,4.0462031 C28.9637268,3.98897914 28.5056086,3.66384992 28.2865492,3.19054879 L27.1700048,0.836667061 C27.0045614,0.500703437 26.7153475,0.238430406 26.3604044,0.102174947 C26.0055748,-0.0340583158 25.6110865,-0.0340583158 25.2562569,0.102174947 C24.9013138,0.23840821 24.6120999,0.500675692 24.4466565,0.836667061 L23.3437288,3.19715208 C23.124539,3.67045322 22.6665513,3.99567955 22.1386472,4.05291738 L19.5071552,4.34923347 C19.1227376,4.39377799 18.7704611,4.58105642 18.5230336,4.87217032 C18.2754755,5.16338134 18.1516937,5.53632898 18.1771967,5.914132 C18.2025729,6.29204599 18.375221,6.6459051 18.6595698,6.90287885 L20.6135438,8.65416796 C20.9936211,9.01105128 21.1561993,9.53593028 21.0424995,10.0391405 L20.5147941,12.5794405 C20.4385545,12.9521662 20.5120237,13.3391806 20.7199104,13.6603006 C20.9276849,13.9814207 21.2540271,14.2118425 21.6311257,14.3038448 C22.0081109,14.3958581 22.4068261,14.3423187 22.744578,14.1542828 L25.0525873,12.8790971 C25.5150175,12.6226727 26.0811619,12.6226727 26.5436773,12.8790971 L28.8720833,14.1542828 C29.2108281,14.3423187 29.6106497,14.3952089 29.9883157,14.3020025 C30.3659533,14.2086879 30.6921877,13.9765542 30.898992,13.6536862 C31.1058814,13.3309292 31.1772444,12.9424999 31.0984546,12.569469 L30.57421,10.0391571 C30.4681611,9.53064764 30.6425831,9.00490855 31.0337467,8.65418461 L32.9877207,6.9028955 C33.2756013,6.64495345 33.4502644,6.28806736 33.4752001,5.90699044 C33.5000222,5.52594127 33.3731397,5.15019139 33.1211648,4.85864743 C32.869065,4.5669925 32.5114752,4.38210014 32.1231711,4.34253584 L32.1231229,4.34251919 Z" id="Path" fill-rule="nonzero"></path>
            <path d="M50.2970359,4.34251919 L47.6655439,4.0462031 C47.1376399,3.98897914 46.6795216,3.66384992 46.4604623,3.19054879 L45.3439179,0.836667061 C45.1784744,0.500703437 44.8892605,0.238430406 44.5343175,0.102174947 C44.1794879,-0.0340583158 43.7849995,-0.0340583158 43.4301699,0.102174947 C43.0752269,0.23840821 42.786013,0.500675692 42.6205696,0.836667061 L41.5176419,3.19715208 C41.2984521,3.67045322 40.8404643,3.99567955 40.3125603,4.05291738 L37.6810682,4.34923347 C37.2966506,4.39377799 36.9443742,4.58105642 36.6969466,4.87217032 C36.4493886,5.16338134 36.3256067,5.53632898 36.3511098,5.914132 C36.376486,6.29204599 36.5491341,6.6459051 36.8334828,6.90287885 L38.7874569,8.65416796 C39.1675341,9.01105128 39.3301124,9.53593028 39.2164126,10.0391405 L38.6887071,12.5794405 C38.6124675,12.9521662 38.6859368,13.3391806 38.8938235,13.6603006 C39.1015979,13.9814207 39.4279401,14.2118425 39.8050388,14.3038448 C40.1820239,14.3958581 40.5807391,14.3423187 40.9184911,14.1542828 L43.2265004,12.8790971 C43.6889306,12.6226727 44.255075,12.6226727 44.7175903,12.8790971 L47.0459963,14.1542828 C47.3847412,14.3423187 47.7845627,14.3952089 48.1622287,14.3020025 C48.5398664,14.2086879 48.8661008,13.9765542 49.072905,13.6536862 C49.2797944,13.3309292 49.3511575,12.9424999 49.2723676,12.569469 L48.7481231,10.0391571 C48.6420742,9.53064764 48.8164961,9.00490855 49.2076597,8.65418461 L51.1616338,6.9028955 C51.4495144,6.64495345 51.6241774,6.28806736 51.6491131,5.90699044 C51.6739353,5.52594127 51.5470528,5.15019139 51.2950778,4.85864743 C51.042978,4.5669925 50.6853882,4.38210014 50.2970841,4.34253584 L50.2970359,4.34251919 Z" id="Path" fill-rule="nonzero"></path>
            <path d="M68.470949,4.34251919 L65.8394569,4.0462031 C65.3115529,3.98897914 64.8534347,3.66384992 64.6343753,3.19054879 L63.5178309,0.836667061 C63.3523875,0.500703437 63.0631736,0.238430406 62.7082305,0.102174947 C62.3534009,-0.0340583158 61.9589126,-0.0340583158 61.604083,0.102174947 C61.2491399,0.23840821 60.959926,0.500675692 60.7944826,0.836667061 L59.6915549,3.19715208 C59.4723651,3.67045322 59.0143773,3.99567955 58.4864733,4.05291738 L55.8549813,4.34923347 C55.4705637,4.39377799 55.1182872,4.58105642 54.8708597,4.87217032 C54.6233016,5.16338134 54.4995198,5.53632898 54.5250228,5.914132 C54.550399,6.29204599 54.7230471,6.6459051 55.0073959,6.90287885 L56.9613699,8.65416796 C57.3414472,9.01105128 57.5040254,9.53593028 57.3903256,10.0391405 L56.8626202,12.5794405 C56.7863806,12.9521662 56.8598498,13.3391806 57.0677365,13.6603006 C57.275511,13.9814207 57.6018532,14.2118425 57.9789518,14.3038448 C58.355937,14.3958581 58.7546522,14.3423187 59.0924041,14.1542828 L61.4004134,12.8790971 C61.8628436,12.6226727 62.428988,12.6226727 62.8915033,12.8790971 L65.2199094,14.1542828 C65.5586542,14.3423187 65.9584758,14.3952089 66.3361418,14.3020025 C66.7137794,14.2086879 67.0400138,13.9765542 67.2468181,13.6536862 C67.4537075,13.3309292 67.5250705,12.9424999 67.4462807,12.569469 L66.9220361,10.0391571 C66.8159872,9.53064764 66.9904092,9.00490855 67.3815728,8.65418461 L69.3355468,6.9028955 C69.6234274,6.64495345 69.7980905,6.28806736 69.8230261,5.90699044 C69.8478483,5.52594127 69.7209658,5.15019139 69.4689909,4.85864743 C69.2168911,4.5669925 68.8593013,4.38210014 68.4709972,4.34253584 L68.470949,4.34251919 Z" id="Path" fill-rule="nonzero"></path>
            <path d="M86.644862,4.34251919 L84.01337,4.0462031 C83.4854659,3.98897914 83.0273477,3.66384992 82.8082884,3.19054879 L81.6917439,0.836667061 C81.5263005,0.500703437 81.2370866,0.238430406 80.8821436,0.102174947 C80.527314,-0.0340583158 80.1328256,-0.0340583158 79.777996,0.102174947 C79.423053,0.23840821 79.1338391,0.500675692 78.9683957,0.836667061 L77.865468,3.19715208 C77.6462781,3.67045322 77.1882904,3.99567955 76.6603863,4.05291738 L74.0288943,4.34923347 C73.6444767,4.39377799 73.2922003,4.58105642 73.0447727,4.87217032 C72.7972147,5.16338134 72.6734328,5.53632898 72.6989358,5.914132 C72.7243121,6.29204599 72.8969601,6.6459051 73.1813089,6.90287885 L75.1352829,8.65416796 C75.5153602,9.01105128 75.6779385,9.53593028 75.5642387,10.0391405 L75.0365332,12.5794405 C74.9602936,12.9521662 75.0337628,13.3391806 75.2416495,13.6603006 C75.449424,13.9814207 75.7757662,14.2118425 76.1528649,14.3038448 C76.52985,14.3958581 76.9285652,14.3423187 77.2663172,14.1542828 L79.5743265,12.8790971 C80.0367567,12.6226727 80.6029011,12.6226727 81.0654164,12.8790971 L83.3938224,14.1542828 C83.7325672,14.3423187 84.1323888,14.3952089 84.5100548,14.3020025 C84.8876924,14.2086879 85.2139269,13.9765542 85.4207311,13.6536862 C85.6276205,13.3309292 85.6989836,12.9424999 85.6201937,12.569469 L85.0959492,10.0391571 C84.9899003,9.53064764 85.1643222,9.00490855 85.5554858,8.65418461 L87.5094598,6.9028955 C87.7973404,6.64495345 87.9720035,6.28806736 87.9969392,5.90699044 C88.0217614,5.52594127 87.8948789,5.15019139 87.6429039,4.85864743 C87.3908041,4.5669925 87.0332143,4.38210014 86.6449102,4.34253584 L86.644862,4.34251919 Z" id="Path" fill-rule="nonzero"></path>
        </g>
    </g>
</svg>