<?xml version="1.0" encoding="UTF-8"?>
<svg width="56px" height="10px" viewBox="0 0 56 10" version="1.1" xmlns="http://www.w3.org/2000/svg" xmlns:xlink="http://www.w3.org/1999/xlink">
    <title>stars</title>
    <g id="Page-1" stroke="none" stroke-width="1" fill="none" fill-rule="evenodd">
        <g id="Landing" transform="translate(-759, -9868)" fill="#002657">
            <g id="Group" transform="translate(19, 9379)">
                <g id="Group-7" transform="translate(714, 0)">
                    <g id="Group-9" transform="translate(10, 476)">
                        <g id="Group-8" transform="translate(16, 13)">
                            <g id="Group-3" transform="translate(0.3739, 0)">
                                <path d="M8.8001734,2.84411154 L7.14003735,2.65004078 C6.80699719,2.61256223 6.51798297,2.39962045 6.37978446,2.0896342 L5.67538724,0.547970968 C5.57101354,0.327933249 5.38855642,0.15615882 5.16463259,0.0669189782 C4.94078035,-0.0223063261 4.69190849,-0.0223063261 4.46805624,0.0669189782 C4.24413241,0.156144282 4.0616753,0.327915077 3.9573016,0.547970968 L3.26149481,2.093959 C3.12321397,2.40394525 2.83428207,2.61695063 2.50124191,2.65443826 L0.841105862,2.84850903 C0.598587335,2.87768324 0.376345799,3.00034032 0.220250559,3.19100394 C0.0640729947,3.38173116 -0.0140175771,3.62599138 0.00207157907,3.8734316 C0.0180807369,4.12094451 0.126999671,4.35270279 0.306387499,4.52100648 L1.53909605,5.66800465 C1.77887638,5.90174362 1.88144251,6.24551054 1.80971244,6.57508557 L1.47679755,8.23884258 C1.4287001,8.48295743 1.47504981,8.73643056 1.60619982,8.94674657 C1.73727902,9.15706258 1.94315937,9.30797622 2.18106054,9.36823264 C2.41889013,9.42849634 2.6704286,9.39343095 2.88350702,9.27027779 L4.3395667,8.43510118 C4.63130122,8.26715728 4.98846617,8.26715728 5.28025439,8.43510118 L6.74918182,9.27027779 C6.96288662,9.39343095 7.21512307,9.42807113 7.45338217,9.36702606 C7.69162338,9.30591013 7.89743572,9.15387531 8.02790285,8.9424145 C8.15842367,8.73102638 8.20344467,8.4766265 8.15373831,8.23231177 L7.82300682,6.57509648 C7.75610349,6.2420507 7.86614151,5.89772047 8.11291588,5.66801556 L9.34562443,4.52101738 C9.5272404,4.35207951 9.63743054,4.11833873 9.65316176,3.86875428 C9.6688214,3.619188 9.58877471,3.37309247 9.42981063,3.18214719 C9.2707678,2.99112923 9.0451742,2.87003489 8.80020383,2.84412244 L8.8001734,2.84411154 Z" id="Path" fill-rule="nonzero"></path>
                                <path d="M20.265596,2.84411154 L18.60546,2.65004078 C18.2724198,2.61256223 17.9834056,2.39962045 17.8452071,2.0896342 L17.1408099,0.547970968 C17.0364362,0.327933249 16.8539791,0.15615882 16.6300552,0.0669189782 C16.406203,-0.0223063261 16.1573311,-0.0223063261 15.9334789,0.0669189782 C15.7095551,0.156144282 15.5270979,0.327915077 15.4227242,0.547970968 L14.7269174,2.093959 C14.5886366,2.40394525 14.2997047,2.61695063 13.9666645,2.65443826 L12.3065285,2.84850903 C12.06401,2.87768324 11.8417684,3.00034032 11.6856732,3.19100394 C11.5294956,3.38173116 11.4514051,3.62599138 11.4674942,3.8734316 C11.4835034,4.12094451 11.5924223,4.35270279 11.7718101,4.52100648 L13.0045187,5.66800465 C13.244299,5.90174362 13.3468652,6.24551054 13.2751351,6.57508557 L12.9422202,8.23884258 C12.8941227,8.48295743 12.9404724,8.73643056 13.0716225,8.94674657 C13.2027017,9.15706258 13.408582,9.30797622 13.6464832,9.36823264 C13.8843128,9.42849634 14.1358512,9.39343095 14.3489297,9.27027779 L15.8049893,8.43510118 C16.0967239,8.26715728 16.4538888,8.26715728 16.745677,8.43510118 L18.2146045,9.27027779 C18.4283093,9.39343095 18.6805457,9.42807113 18.9188048,9.36702606 C19.157046,9.30591013 19.3628584,9.15387531 19.4933255,8.9424145 C19.6238463,8.73102638 19.6688673,8.4766265 19.6191609,8.23231177 L19.2884295,6.57509648 C19.2215261,6.2420507 19.3315641,5.89772047 19.5783385,5.66801556 L20.8110471,4.52101738 C20.992663,4.35207951 21.1028532,4.11833873 21.1185844,3.86875428 C21.134244,3.619188 21.0541973,3.37309247 20.8952333,3.18214719 C20.7361904,2.99112923 20.5105968,2.87003489 20.2656265,2.84412244 L20.265596,2.84411154 Z" id="Path" fill-rule="nonzero"></path>
                                <path d="M31.7310187,2.84411154 L30.0708826,2.65004078 C29.7378425,2.61256223 29.4488282,2.39962045 29.3106297,2.0896342 L28.6062325,0.547970968 C28.5018588,0.327933249 28.3194017,0.15615882 28.0954779,0.0669189782 C27.8716256,-0.0223063261 27.6227538,-0.0223063261 27.3989015,0.0669189782 C27.1749777,0.156144282 26.9925206,0.327915077 26.8881469,0.547970968 L26.1923401,2.093959 C26.0540592,2.40394525 25.7651273,2.61695063 25.4320872,2.65443826 L23.7719511,2.84850903 C23.5294326,2.87768324 23.3071911,3.00034032 23.1510958,3.19100394 C22.9949183,3.38173116 22.9168277,3.62599138 22.9329169,3.8734316 C22.948926,4.12094451 23.0578449,4.35270279 23.2372328,4.52100648 L24.4699413,5.66800465 C24.7097217,5.90174362 24.8122878,6.24551054 24.7405577,6.57508557 L24.4076428,8.23884258 C24.3595454,8.48295743 24.4058951,8.73643056 24.5370451,8.94674657 C24.6681243,9.15706258 24.8740046,9.30797622 25.1119058,9.36823264 C25.3497354,9.42849634 25.6012739,9.39343095 25.8143523,9.27027779 L27.270412,8.43510118 C27.5621465,8.26715728 27.9193114,8.26715728 28.2110997,8.43510118 L29.6800271,9.27027779 C29.8937319,9.39343095 30.1459683,9.42807113 30.3842274,9.36702606 C30.6224687,9.30591013 30.828281,9.15387531 30.9587481,8.9424145 C31.0892689,8.73102638 31.1342899,8.4766265 31.0845836,8.23231177 L30.7538521,6.57509648 C30.6869488,6.2420507 30.7969868,5.89772047 31.0437612,5.66801556 L32.2764697,4.52101738 C32.4580857,4.35207951 32.5682758,4.11833873 32.584007,3.86875428 C32.5996667,3.619188 32.51962,3.37309247 32.3606559,3.18214719 C32.2016131,2.99112923 31.9760195,2.87003489 31.7310491,2.84412244 L31.7310187,2.84411154 Z" id="Path" fill-rule="nonzero"></path>
                                <path d="M43.1964413,2.84411154 L41.5363053,2.65004078 C41.2032651,2.61256223 40.9142509,2.39962045 40.7760524,2.0896342 L40.0716552,0.547970968 C39.9672814,0.327933249 39.7848243,0.15615882 39.5609005,0.0669189782 C39.3370483,-0.0223063261 39.0881764,-0.0223063261 38.8643242,0.0669189782 C38.6404003,0.156144282 38.4579432,0.327915077 38.3535695,0.547970968 L37.6577627,2.093959 C37.5194819,2.40394525 37.23055,2.61695063 36.8975098,2.65443826 L35.2373738,2.84850903 C34.9948552,2.87768324 34.7726137,3.00034032 34.6165185,3.19100394 C34.4603409,3.38173116 34.3822503,3.62599138 34.3983395,3.8734316 C34.4143486,4.12094451 34.5232676,4.35270279 34.7026554,4.52100648 L35.935364,5.66800465 C36.1751443,5.90174362 36.2777104,6.24551054 36.2059803,6.57508557 L35.8730655,8.23884258 C35.824968,8.48295743 35.8713177,8.73643056 36.0024677,8.94674657 C36.1335469,9.15706258 36.3394273,9.30797622 36.5773285,9.36823264 C36.815158,9.42849634 37.0666965,9.39343095 37.2797749,9.27027779 L38.7358346,8.43510118 C39.0275691,8.26715728 39.3847341,8.26715728 39.6765223,8.43510118 L41.1454497,9.27027779 C41.3591545,9.39343095 41.611391,9.42807113 41.8496501,9.36702606 C42.0878913,9.30591013 42.2937036,9.15387531 42.4241708,8.9424145 C42.5546916,8.73102638 42.5997126,8.4766265 42.5500062,8.23231177 L42.2192747,6.57509648 C42.1523714,6.2420507 42.2624094,5.89772047 42.5091838,5.66801556 L43.7418923,4.52101738 C43.9235083,4.35207951 44.0336985,4.11833873 44.0494297,3.86875428 C44.0650893,3.619188 43.9850426,3.37309247 43.8260785,3.18214719 C43.6670357,2.99112923 43.4414421,2.87003489 43.1964717,2.84412244 L43.1964413,2.84411154 Z" id="Path" fill-rule="nonzero"></path>
                                <path d="M54.6618639,2.84411154 L53.0017279,2.65004078 C52.6686877,2.61256223 52.3796735,2.39962045 52.241475,2.0896342 L51.5370778,0.547970968 C51.4327041,0.327933249 51.250247,0.15615882 51.0263231,0.0669189782 C50.8024709,-0.0223063261 50.553599,-0.0223063261 50.3297468,0.0669189782 C50.105823,0.156144282 49.9233658,0.327915077 49.8189921,0.547970968 L49.1231854,2.093959 C48.9849045,2.40394525 48.6959726,2.61695063 48.3629325,2.65443826 L46.7027964,2.84850903 C46.4602779,2.87768324 46.2380363,3.00034032 46.0819411,3.19100394 C45.9257635,3.38173116 45.847673,3.62599138 45.8637621,3.8734316 C45.8797713,4.12094451 45.9886902,4.35270279 46.168078,4.52100648 L47.4007866,5.66800465 C47.6405669,5.90174362 47.7431331,6.24551054 47.671403,6.57508557 L47.3384881,8.23884258 C47.2903906,8.48295743 47.3367404,8.73643056 47.4678904,8.94674657 C47.5989696,9.15706258 47.8048499,9.30797622 48.0427511,9.36823264 C48.2805807,9.42849634 48.5321192,9.39343095 48.7451976,9.27027779 L50.2012573,8.43510118 C50.4929918,8.26715728 50.8501567,8.26715728 51.1419449,8.43510118 L52.6108724,9.27027779 C52.8245772,9.39343095 53.0768136,9.42807113 53.3150727,9.36702606 C53.5533139,9.30591013 53.7591263,9.15387531 53.8895934,8.9424145 C54.0201142,8.73102638 54.0651352,8.4766265 54.0154289,8.23231177 L53.6846974,6.57509648 C53.617794,6.2420507 53.7278321,5.89772047 53.9746064,5.66801556 L55.207315,4.52101738 C55.3889309,4.35207951 55.4991211,4.11833873 55.5148523,3.86875428 C55.5305119,3.619188 55.4504653,3.37309247 55.2915012,3.18214719 C55.1324583,2.99112923 54.9068648,2.87003489 54.6618944,2.84412244 L54.6618639,2.84411154 Z" id="Path" fill-rule="nonzero"></path>
                            </g>
                        </g>
                    </g>
                </g>
            </g>
        </g>
    </g>
</svg>